{
	"asset":{
		"generator":"Khronos glTF Blender I/O v4.1.63",
		"version":"2.0"
	},
	"scene":0,
	"scenes":[
		{
			"name":"Scene",
			"nodes":[
				0,
				1,
				2
			]
		}
	],
	"nodes":[
		{
			"mesh":0,
			"name":"NewMolecule"
		},
		{
			"mesh":1,
			"name":"NewMolecule.001",
			"rotation":[
				0.7446880340576172,
				0.20957331359386444,
				-0.09407592564821243,
				0.6266326904296875
			],
			"translation":[
				0.06264589726924896,
				0.24331489205360413,
				0.5150596499443054
			]
		},
		{
			"mesh":2,
			"name":"NewMolecule.002",
			"rotation":[
				0.7446880340576172,
				0.20957331359386444,
				-0.09407592564821243,
				0.6266326904296875
			],
			"translation":[
				0.06264589726924896,
				0.24331489205360413,
				0.5150596499443054
			]
		}
	],
	"animations":[
		{
			"channels":[
				{
					"sampler":0,
					"target":{
						"node":1,
						"path":"translation"
					}
				},
				{
					"sampler":1,
					"target":{
						"node":1,
						"path":"rotation"
					}
				},
				{
					"sampler":2,
					"target":{
						"node":1,
						"path":"scale"
					}
				}
			],
			"name":"NewMolecule.001Action",
			"samplers":[
				{
					"input":23,
					"interpolation":"LINEAR",
					"output":24
				},
				{
					"input":23,
					"interpolation":"LINEAR",
					"output":25
				},
				{
					"input":26,
					"interpolation":"STEP",
					"output":27
				}
			]
		},
		{
			"channels":[
				{
					"sampler":0,
					"target":{
						"node":2,
						"path":"translation"
					}
				},
				{
					"sampler":1,
					"target":{
						"node":2,
						"path":"rotation"
					}
				},
				{
					"sampler":2,
					"target":{
						"node":2,
						"path":"scale"
					}
				}
			],
			"name":"NewMolecule.002Action",
			"samplers":[
				{
					"input":23,
					"interpolation":"LINEAR",
					"output":28
				},
				{
					"input":23,
					"interpolation":"LINEAR",
					"output":29
				},
				{
					"input":26,
					"interpolation":"STEP",
					"output":30
				}
			]
		}
	],
	"materials":[
		{
			"doubleSided":true,
			"name":"atoms",
			"pbrMetallicRoughness":{
				"metallicFactor":0,
				"roughnessFactor":0.5636363625526428
			}
		},
		{
			"alphaMode":"BLEND",
			"doubleSided":true,
			"name":"activesite",
			"pbrMetallicRoughness":{
				"baseColorFactor":[
					1,
					1,
					1,
					0.5227272510528564
				],
				"baseColorTexture":{
					"index":0
				},
				"metallicFactor":0.13636362552642822,
				"metallicRoughnessTexture":{
					"index":1
				}
			}
		},
		{
			"alphaMode":"BLEND",
			"doubleSided":true,
			"name":"protein",
			"pbrMetallicRoughness":{
				"baseColorFactor":[
					1,
					1,
					1,
					0.4227272570133209
				],
				"baseColorTexture":{
					"index":2
				},
				"metallicFactor":0,
				"metallicRoughnessTexture":{
					"index":3
				}
			}
		},
		{
			"doubleSided":true,
			"name":"ligand",
			"pbrMetallicRoughness":{
				"baseColorTexture":{
					"index":4
				},
				"metallicFactor":0,
				"metallicRoughnessTexture":{
					"index":5
				}
			}
		}
	],
	"meshes":[
		{
			"name":"NewMolecule.001",
			"primitives":[
				{
					"attributes":{
						"POSITION":0,
						"NORMAL":1,
						"TEXCOORD_0":2,
						"COLOR_0":3
					},
					"indices":4,
					"material":0
				},
				{
					"attributes":{
						"POSITION":5,
						"NORMAL":6,
						"TEXCOORD_0":7,
						"COLOR_0":8
					},
					"indices":9,
					"material":1
				},
				{
					"attributes":{
						"POSITION":10,
						"NORMAL":11,
						"TEXCOORD_0":12,
						"COLOR_0":13
					},
					"indices":14,
					"material":2
				}
			]
		},
		{
			"name":"NewMolecule.002",
			"primitives":[
				{
					"attributes":{
						"POSITION":15,
						"NORMAL":16,
						"TEXCOORD_0":17
					},
					"indices":18,
					"material":3
				}
			]
		},
		{
			"name":"NewMolecule.003",
			"primitives":[
				{
					"attributes":{
						"POSITION":19,
						"NORMAL":20,
						"TEXCOORD_0":21
					},
					"indices":22,
					"material":3
				}
			]
		}
	],
	"textures":[
		{
			"sampler":0,
			"source":0
		},
		{
			"sampler":0,
			"source":1
		},
		{
			"sampler":0,
			"source":2
		},
		{
			"sampler":0,
			"source":3
		},
		{
			"sampler":0,
			"source":4
		},
		{
			"sampler":0,
			"source":5
		}
	],
	"images":[
		{
			"mimeType":"image/png",
			"name":"Base color",
			"uri":"Base%20color.png"
		},
		{
			"mimeType":"image/png",
			"name":"Roughness",
			"uri":"Roughness.png"
		},
		{
			"mimeType":"image/png",
			"name":"Base color",
			"uri":"Base%20color-1.png"
		},
		{
			"mimeType":"image/png",
			"name":"Roughness",
			"uri":"Roughness-1.png"
		},
		{
			"mimeType":"image/png",
			"name":"Base Color",
			"uri":"Base%20Color.png"
		},
		{
			"mimeType":"image/png",
			"name":"Roughness",
			"uri":"Roughness-2.png"
		}
	],
	"accessors":[
		{
			"bufferView":0,
			"componentType":5126,
			"count":544038,
			"max":[
				0.1846519410610199,
				0.21883216500282288,
				0.19372829794883728
			],
			"min":[
				-0.16400869190692902,
				-0.22116787731647491,
				-0.18927167356014252
			],
			"type":"VEC3"
		},
		{
			"bufferView":1,
			"componentType":5126,
			"count":544038,
			"type":"VEC3"
		},
		{
			"bufferView":2,
			"componentType":5126,
			"count":544038,
			"type":"VEC2"
		},
		{
			"bufferView":3,
			"componentType":5126,
			"count":544038,
			"type":"VEC3"
		},
		{
			"bufferView":4,
			"componentType":5125,
			"count":589080,
			"type":"SCALAR"
		},
		{
			"bufferView":5,
			"componentType":5126,
			"count":8593,
			"max":[
				0.08953526616096497,
				0.1298803687095642,
				0.1580599695444107
			],
			"min":[
				-0.12297337502241135,
				-0.09678327292203903,
				-0.08379577845335007
			],
			"type":"VEC3"
		},
		{
			"bufferView":6,
			"componentType":5126,
			"count":8593,
			"type":"VEC3"
		},
		{
			"bufferView":7,
			"componentType":5126,
			"count":8593,
			"type":"VEC2"
		},
		{
			"bufferView":8,
			"componentType":5126,
			"count":8593,
			"type":"VEC3"
		},
		{
			"bufferView":9,
			"componentType":5123,
			"count":38628,
			"type":"SCALAR"
		},
		{
			"bufferView":10,
			"componentType":5126,
			"count":29889,
			"max":[
				0.20519721508026123,
				0.23435182869434357,
				0.21147523820400238
			],
			"min":[
				-0.18380926549434662,
				-0.2379705011844635,
				-0.20393586158752441
			],
			"type":"VEC3"
		},
		{
			"bufferView":11,
			"componentType":5126,
			"count":29889,
			"type":"VEC3"
		},
		{
			"bufferView":12,
			"componentType":5126,
			"count":29889,
			"type":"VEC2"
		},
		{
			"bufferView":13,
			"componentType":5126,
			"count":29889,
			"type":"VEC3"
		},
		{
			"bufferView":14,
			"componentType":5123,
			"count":136824,
			"type":"SCALAR"
		},
		{
			"bufferView":15,
			"componentType":5126,
			"count":6728,
			"max":[
				0.09214528650045395,
				0.12813211977481842,
				0.13412831723690033
			],
			"min":[
				-0.005215039476752281,
				-0.015667887404561043,
				0.03246831148862839
			],
			"type":"VEC3"
		},
		{
			"bufferView":16,
			"componentType":5126,
			"count":6728,
			"type":"VEC3"
		},
		{
			"bufferView":17,
			"componentType":5126,
			"count":6728,
			"type":"VEC2"
		},
		{
			"bufferView":18,
			"componentType":5123,
			"count":19536,
			"type":"SCALAR"
		},
		{
			"bufferView":19,
			"componentType":5126,
			"count":3962,
			"max":[
				0.08228000998497009,
				-0.005306077189743519,
				0.14768828451633453
			],
			"min":[
				-0.0018150117248296738,
				-0.11842787265777588,
				0.0657283142209053
			],
			"type":"VEC3"
		},
		{
			"bufferView":20,
			"componentType":5126,
			"count":3962,
			"type":"VEC3"
		},
		{
			"bufferView":21,
			"componentType":5126,
			"count":3962,
			"type":"VEC2"
		},
		{
			"bufferView":22,
			"componentType":5123,
			"count":11424,
			"type":"SCALAR"
		},
		{
			"bufferView":23,
			"componentType":5126,
			"count":141,
			"max":[
				7.083333333333333
			],
			"min":[
				1.25
			],
			"type":"SCALAR"
		},
		{
			"bufferView":24,
			"componentType":5126,
			"count":141,
			"type":"VEC3"
		},
		{
			"bufferView":25,
			"componentType":5126,
			"count":141,
			"type":"VEC4"
		},
		{
			"bufferView":26,
			"componentType":5126,
			"count":2,
			"max":[
				7.083333333333333
			],
			"min":[
				1.25
			],
			"type":"SCALAR"
		},
		{
			"bufferView":27,
			"componentType":5126,
			"count":2,
			"type":"VEC3"
		},
		{
			"bufferView":28,
			"componentType":5126,
			"count":141,
			"type":"VEC3"
		},
		{
			"bufferView":29,
			"componentType":5126,
			"count":141,
			"type":"VEC4"
		},
		{
			"bufferView":30,
			"componentType":5126,
			"count":2,
			"type":"VEC3"
		}
	],
	"bufferViews":[
		{
			"buffer":0,
			"byteLength":6528456,
			"byteOffset":0,
			"target":34962
		},
		{
			"buffer":0,
			"byteLength":6528456,
			"byteOffset":6528456,
			"target":34962
		},
		{
			"buffer":0,
			"byteLength":4352304,
			"byteOffset":13056912,
			"target":34962
		},
		{
			"buffer":0,
			"byteLength":6528456,
			"byteOffset":17409216,
			"target":34962
		},
		{
			"buffer":0,
			"byteLength":2356320,
			"byteOffset":23937672,
			"target":34963
		},
		{
			"buffer":0,
			"byteLength":103116,
			"byteOffset":26293992,
			"target":34962
		},
		{
			"buffer":0,
			"byteLength":103116,
			"byteOffset":26397108,
			"target":34962
		},
		{
			"buffer":0,
			"byteLength":68744,
			"byteOffset":26500224,
			"target":34962
		},
		{
			"buffer":0,
			"byteLength":103116,
			"byteOffset":26568968,
			"target":34962
		},
		{
			"buffer":0,
			"byteLength":77256,
			"byteOffset":26672084,
			"target":34963
		},
		{
			"buffer":0,
			"byteLength":358668,
			"byteOffset":26749340,
			"target":34962
		},
		{
			"buffer":0,
			"byteLength":358668,
			"byteOffset":27108008,
			"target":34962
		},
		{
			"buffer":0,
			"byteLength":239112,
			"byteOffset":27466676,
			"target":34962
		},
		{
			"buffer":0,
			"byteLength":358668,
			"byteOffset":27705788,
			"target":34962
		},
		{
			"buffer":0,
			"byteLength":273648,
			"byteOffset":28064456,
			"target":34963
		},
		{
			"buffer":0,
			"byteLength":80736,
			"byteOffset":28338104,
			"target":34962
		},
		{
			"buffer":0,
			"byteLength":80736,
			"byteOffset":28418840,
			"target":34962
		},
		{
			"buffer":0,
			"byteLength":53824,
			"byteOffset":28499576,
			"target":34962
		},
		{
			"buffer":0,
			"byteLength":39072,
			"byteOffset":28553400,
			"target":34963
		},
		{
			"buffer":0,
			"byteLength":47544,
			"byteOffset":28592472,
			"target":34962
		},
		{
			"buffer":0,
			"byteLength":47544,
			"byteOffset":28640016,
			"target":34962
		},
		{
			"buffer":0,
			"byteLength":31696,
			"byteOffset":28687560,
			"target":34962
		},
		{
			"buffer":0,
			"byteLength":22848,
			"byteOffset":28719256,
			"target":34963
		},
		{
			"buffer":0,
			"byteLength":564,
			"byteOffset":28742104
		},
		{
			"buffer":0,
			"byteLength":1692,
			"byteOffset":28742668
		},
		{
			"buffer":0,
			"byteLength":2256,
			"byteOffset":28744360
		},
		{
			"buffer":0,
			"byteLength":8,
			"byteOffset":28746616
		},
		{
			"buffer":0,
			"byteLength":24,
			"byteOffset":28746624
		},
		{
			"buffer":0,
			"byteLength":1692,
			"byteOffset":28746648
		},
		{
			"buffer":0,
			"byteLength":2256,
			"byteOffset":28748340
		},
		{
			"buffer":0,
			"byteLength":24,
			"byteOffset":28750596
		}
	],
	"samplers":[
		{
			"magFilter":9729,
			"minFilter":9987
		}
	],
	"buffers":[
		{
			"byteLength":28750620,
			"uri":"ligand_textures.bin"
		}
	]
}
